<svg xmlns="http://www.w3.org/2000/svg" width="47.5" height="43.581" viewBox="0 0 47.5 43.581">
  <path id="パス_12" data-name="パス 12" d="M36.438,3A14.222,14.222,0,0,0,25.75,7.964,14.222,14.222,0,0,0,15.063,3,12.936,12.936,0,0,0,2,16.063C2,25.04,10.075,32.355,22.306,43.47l3.444,3.111,3.444-3.135C41.425,32.355,49.5,25.04,49.5,16.063A12.936,12.936,0,0,0,36.438,3ZM25.988,39.931l-.238.238-.238-.238c-11.3-10.236-18.762-17-18.762-23.869A8.117,8.117,0,0,1,15.063,7.75a9.285,9.285,0,0,1,8.479,5.6h4.441a9.226,9.226,0,0,1,8.455-5.6,8.117,8.117,0,0,1,8.313,8.313C44.75,22.926,37.293,29.695,25.988,39.931Z" transform="translate(-2 -3)"/>
</svg>
