<svg xmlns="http://www.w3.org/2000/svg" xmlns:xlink="http://www.w3.org/1999/xlink" width="109.69" height="104.498" viewBox="0 0 109.69 104.498">
  <defs>
    <linearGradient id="linear-gradient" x1="-0.046" y1="0.975" x2="0.834" y2="0.31" gradientUnits="objectBoundingBox">
      <stop offset="0.02" stop-color="#a0c2e6"/>
      <stop offset="1" stop-color="#a2d4b9"/>
    </linearGradient>
  </defs>
  <g id="グループ_14" data-name="グループ 14" transform="translate(-497.655 -30)">
    <g id="グループ_12" data-name="グループ 12" transform="translate(497.655 30)">
      <g id="logo">
        <path id="パス_26" data-name="パス 26" d="M188.236,441.33c3.78,0,5.83,1.641,5.83,5.162,0,3.855-2.577,5.541-6.224,5.541h-1.27v4.961H183V441.33Zm-.186,8.088c1.307,0,2.228-.8,2.228-2.726s-.921-2.755-2.228-2.755h-1.485v5.481Z" transform="translate(-181.002 -352.703)" fill="#a0c2e6"/>
        <path id="パス_27" data-name="パス 27" d="M203.84,446.888a3.617,3.617,0,0,1,3.29-1.671c2.087,0,3.714,1.225,3.714,3.9v7.754h-3.476v-7.011c0-1.545-.49-2.087-1.619-2.087-1,0-1.782.6-1.782,2.087v7.033H200.49v-16.1h3.476v2.852a17.176,17.176,0,0,1-.245,3.231Z" transform="translate(-185.502 -352.564)" fill="#a0c2e6"/>
        <path id="パス_28" data-name="パス 28" d="M228.435,452.5c0,4.271-2.473,6.083-5.7,6.083s-5.711-1.79-5.711-5.763c0-4.278,2.473-6.09,5.711-6.09S228.435,448.52,228.435,452.5Zm-3.58.119c0-1.872-.609-3.379-2.124-3.379s-2.132,1.07-2.132,3.454c0,1.872.616,3.379,2.132,3.379s2.124-1.084,2.124-3.454Z" transform="translate(-189.755 -354.093)" fill="#a0c2e6"/>
        <path id="パス_29" data-name="パス 29" d="M238.658,453.422c0,1.1.535,1.485,1.7,1.485a3.163,3.163,0,0,0,.966-.171v2.406a7.851,7.851,0,0,1-2.295.327c-2.228,0-3.766-1.129-3.766-3.513V448.23H233.6v-2.406h1.679v-1.485l3.379-1.909v3.394h2.518v2.414h-2.518Z" transform="translate(-194.021 -352.986)" fill="#a0c2e6"/>
        <path id="パス_30" data-name="パス 30" d="M256.653,452.5c0,4.271-2.481,6.083-5.711,6.083s-5.711-1.79-5.711-5.763c0-4.278,2.481-6.09,5.711-6.09S256.653,448.52,256.653,452.5Zm-3.58.119c0-1.872-.616-3.379-2.132-3.379s-2.132,1.07-2.132,3.454c0,1.872.616,3.379,2.132,3.379S253.073,454.989,253.073,452.62Z" transform="translate(-197.014 -354.093)" fill="#a0c2e6"/>
        <path id="パス_31" data-name="パス 31" d="M266.676,453.7c0,.624.208.943.817.943a1.24,1.24,0,0,0,.349-.037v2.228a5.884,5.884,0,0,1-1.552.2c-1.76,0-3.09-.624-3.09-2.793V440.79h3.476Z" transform="translate(-201.637 -352.564)" fill="#a2d4b9"/>
        <path id="パス_32" data-name="パス 32" d="M280.7,454.6c0,.743.267,1.069.8,1.069a.7.7,0,0,0,.282,0v2.4a4.842,4.842,0,0,1-1.864.327c-1.329,0-1.946-.446-2.228-1.307a3.654,3.654,0,0,1-3.275,1.485c-2.414,0-3.892-1.27-3.892-3.416,0-2.369,1.946-3.632,5.036-3.632a9.657,9.657,0,0,1,1.641.141v-.683c0-1.389-.535-2.028-1.485-2.028s-1.485.579-1.716,1.864l-2.971-.542c.572-2.31,2.317-3.558,4.932-3.558,2.934,0,4.731,1.485,4.731,4.1Zm-3.5-.743a6.55,6.55,0,0,0-1.485-.163c-1.062,0-1.738.505-1.738,1.367,0,.683.535,1.188,1.411,1.188,1.218.022,1.812-.706,1.812-2.369Z" transform="translate(-203.521 -354.09)" fill="#a2d4b9"/>
        <path id="パス_33" data-name="パス 33" d="M290.847,447.133a3.713,3.713,0,0,1,3.342-1.931c3.045,0,4.7,2.109,4.7,5.942,0,3.439-2.042,5.89-4.909,5.89a3.454,3.454,0,0,1-3.149-1.73h-.045a2.54,2.54,0,0,1,.3,1.4v.1H287.72V440.79H291.2v3.81a7.033,7.033,0,0,1-.408,2.533Zm4.508,4.033c0-2.228-.862-3.468-2.191-3.468s-2.028,1.225-2.028,3.491.676,3.416,2.124,3.416c1.233,0,2.094-1.2,2.094-3.439Z" transform="translate(-207.946 -352.564)" fill="#a2d4b9"/>
        <path id="パス_34" data-name="パス 34" d="M314.962,453.659H308.04c.208,1.909.988,2.614,2.028,2.614.78,0,1.292-.52,1.537-1.485l3.053.9a4.453,4.453,0,0,1-4.627,2.9c-3.52,0-5.511-2.05-5.511-5.749,0-4.092,2.228-6.105,5.2-6.105,3.714,0,5.2,2.332,5.2,5.2Zm-3.238-2.273c0-1.567-.795-2.347-1.8-2.347-.862,0-1.641.52-1.864,2.347Z" transform="translate(-212.269 -354.093)" fill="#a2d4b9"/>
        <path id="パス_35" data-name="パス 35" d="M324.646,453.7c0,.624.208.943.817.943a1.24,1.24,0,0,0,.349-.037v2.228a5.884,5.884,0,0,1-1.552.2c-1.76,0-3.09-.624-3.09-2.793V440.79h3.476Z" transform="translate(-216.553 -352.564)" fill="#a2d4b9"/>
        <path id="パス_36" data-name="パス 36" d="M277.6,332.554h-24.16L246.307,322h-20.35l-8.4,10.591H192.706a12.433,12.433,0,0,0-12.4,12.4V394.57a12.433,12.433,0,0,0,12.4,12.359H277.6a12.433,12.433,0,0,0,12.4-12.4V344.95A12.433,12.433,0,0,0,277.6,332.554Z" transform="translate(-180.31 -322)" fill="url(#linear-gradient)"/>
        <circle id="楕円形_11" data-name="楕円形 11" cx="25.631" cy="25.631" r="25.631" transform="translate(29.218 23.945)" fill="#fff"/>
        <circle id="楕円形_12" data-name="楕円形 12" cx="15.582" cy="15.582" r="15.582" transform="translate(39.267 33.994)" fill="#fff" stroke="#aaa8a8" stroke-miterlimit="10" stroke-width="5.89"/>
        <path id="パス_37" data-name="パス 37" d="M305.183,422.259,303.141,410.9l6.268-4.4c1.485-1.055,2.533-3.394,1.485-4.909s-3.617-1.344-5.125-.29l-6.268,4.4-10-5.726a.951.951,0,0,0-.847.082l-2.711,1.9a.334.334,0,0,0,0,.572l8.712,7.427-5.7,4s-2.1-.743-3.312-1.188-2.094.743-1.612,1.426l2.31,3.305a1.27,1.27,0,0,0,1.315,1.864l2.317,3.3c.483.683,1.924.253,1.886-1.04s0-3.52,0-3.52l5.7-4,4,10.7a.334.334,0,0,0,.542.193l2.711-1.9A.98.98,0,0,0,305.183,422.259Z" transform="translate(-206.961 -342.047)" fill="#fff"/>
      </g>
    </g>
  </g>
</svg>
